<?xml version="1.0" encoding="utf-8"?>
<!-- Generator: Adobe Illustrator 27.1.1, SVG Export Plug-In . SVG Version: 6.00 Build 0)  -->
<svg version="1.1" id="Lager_1" xmlns="http://www.w3.org/2000/svg" xmlns:xlink="http://www.w3.org/1999/xlink" x="0px" y="0px"
	 viewBox="0 0 172.51 114.02" style="enable-background:new 0 0 172.51 114.02;" xml:space="preserve">
<g>
	<g>
		<path d="M98.36,40.01c4.7-4.7,10.33-7.05,16.88-7.05v81.06c-9.69,0-16.81-4.32-21.37-12.96c-10.35,8.64-22.41,12.96-36.18,12.96
			c-15.77,0-29.32-5.53-40.67-16.6C5.67,86.36,0,72.94,0,57.18c0-15.76,5.67-29.23,17.02-40.39C28.37,5.63,41.93,0.05,57.69,0.05
			h33.62c0,6.27-2.21,11.61-6.62,16.03s-9.76,6.62-16.03,6.62H57.69c-9.4,0-17.38,3.4-23.93,10.19c-6.55,6.79-9.83,14.89-9.83,24.29
			s3.28,17.45,9.83,24.15c6.55,6.7,14.53,10.04,23.93,10.04S75.05,88,81.55,81.25c6.5-6.74,9.76-14.86,9.76-24.36
			C91.31,50.34,93.66,44.71,98.36,40.01z"/>
	</g>
	<g>
		<path d="M151.4,25.04c0,2.88,1,5.35,2.99,7.4c2,2.05,4.43,3.07,7.31,3.07h2c2.44,0,4.51,0.86,6.23,2.58
			c1.72,1.72,2.58,3.79,2.58,6.23h-12.74c-4.84,0-8.97-1.69-12.41-5.07s-5.15-7.47-5.15-12.27v-7.7c0-2.88-1.01-5.35-3.02-7.4
			s-4.44-3.07-7.29-3.07h-1.94c-2.47,0-4.58-0.85-6.32-2.55c-1.74-1.7-2.6-3.79-2.6-6.26h12.74c4.84,0,8.98,1.69,12.44,5.07
			c3.45,3.38,5.18,7.47,5.18,12.27V25.04z"/>
	</g>
</g>
</svg>
